<?xml version="1.0" standalone="no"?>
<!DOCTYPE svg PUBLIC "-//W3C//DTD SVG 20010904//EN"
 "http://www.w3.org/TR/2001/REC-SVG-20010904/DTD/svg10.dtd">
<svg version="1.0" xmlns="http://www.w3.org/2000/svg"
 width="360.000000pt" height="268.000000pt" viewBox="0 0 360.000000 268.000000"
 preserveAspectRatio="xMidYMid meet">

<g transform="translate(0.000000,268.000000) scale(0.100000,-0.100000)"
fill="#000000" stroke="none">
<path d="M1964 2090 c-36 -14 -64 -59 -64 -102 0 -50 13 -74 50 -93 96 -50
212 40 169 130 -28 58 -100 88 -155 65z"/>
<path d="M1780 1842 c-42 -8 -32 -17 30 -26 57 -8 121 -44 137 -76 19 -37 16
-94 -6 -122 -11 -13 -39 -30 -63 -37 -46 -14 -163 -17 -219 -7 l-34 7 25 -15
c37 -23 206 -76 240 -76 16 0 31 -3 34 -8 6 -10 -57 -135 -92 -180 -40 -53
-144 -135 -217 -172 -36 -18 -63 -35 -61 -37 7 -7 140 18 200 38 34 11 94 38
135 60 40 22 75 38 77 36 8 -8 -37 -123 -76 -195 l-40 -74 37 30 c64 51 187
184 232 251 72 106 95 172 95 276 1 76 -3 98 -24 140 -32 65 -108 141 -168
167 -50 23 -175 33 -242 20z"/>
<path d="M650 970 l0 -30 85 0 85 0 0 -210 0 -210 35 0 35 0 0 210 0 210 85 0
85 0 0 30 0 30 -205 0 -205 0 0 -30z"/>
<path d="M1600 955 c-19 -23 -8 -50 22 -53 19 -2 28 2 33 18 12 39 -29 66 -55
35z"/>
<path d="M2482 961 c-8 -4 -12 -19 -10 -32 4 -29 45 -34 61 -7 19 30 -19 60
-51 39z"/>
<path d="M1038 835 c-9 -9 134 -326 146 -322 6 2 31 52 55 110 25 59 48 104
52 100 3 -5 26 -54 49 -110 24 -57 48 -103 54 -103 9 1 107 217 141 311 5 14
0 16 -25 15 -31 -1 -34 -6 -73 -99 -23 -53 -44 -94 -47 -89 -4 4 -23 48 -44
98 -32 77 -41 90 -59 89 -18 -1 -30 -20 -61 -93 -22 -51 -42 -92 -45 -92 -4 0
-24 42 -46 93 -34 78 -44 92 -65 95 -14 2 -28 0 -32 -3z"/>
<path d="M1595 830 c-1 -3 -3 -74 -3 -157 l-1 -153 35 0 35 0 -3 157 -3 156
-28 1 c-16 1 -30 -1 -32 -4z"/>
<path d="M1750 680 l0 -160 30 0 30 0 0 114 c0 112 1 115 26 135 31 24 72 27
100 7 17 -13 19 -30 23 -135 l3 -121 29 0 29 0 0 113 c0 124 -15 172 -60 194
-37 19 -84 16 -113 -7 -14 -11 -28 -20 -31 -20 -3 0 -6 9 -6 20 0 16 -7 20
-30 20 l-30 0 0 -160z"/>
<path d="M2110 678 l0 -158 30 0 30 0 0 114 c0 112 1 115 26 135 27 21 69 27
91 13 23 -14 33 -64 33 -163 l0 -99 30 0 30 0 0 110 c0 121 -12 166 -51 194
-32 22 -91 20 -122 -4 -31 -25 -37 -25 -37 -2 0 12 -8 17 -30 17 l-30 0 0
-157z"/>
<path d="M2474 831 c-2 -2 -4 -73 -4 -158 l0 -153 30 0 30 0 0 158 0 157 -26
0 c-14 0 -28 -2 -30 -4z"/>
<path d="M2630 680 l0 -160 30 0 30 0 0 114 c0 112 1 115 26 135 32 25 76 27
98 5 15 -15 18 -46 20 -226 1 -25 5 -28 33 -28 l33 0 0 103 c0 56 -5 119 -11
140 -19 68 -108 100 -162 57 -14 -11 -28 -20 -31 -20 -3 0 -6 9 -6 20 0 16 -7
20 -30 20 l-30 0 0 -160z"/>
<path d="M3100 831 c-64 -7 -107 -31 -121 -68 -14 -38 -1 -90 31 -117 l28 -23
-26 -20 c-25 -19 -26 -21 -10 -44 15 -24 15 -25 -13 -41 -97 -56 -28 -168 104
-168 89 0 147 39 147 100 0 49 -30 76 -107 94 -34 7 -66 17 -72 21 -20 12 -11
35 17 41 65 14 93 27 112 51 24 31 26 80 4 111 -15 22 -14 22 21 22 32 0 36 3
33 23 -3 19 -9 22 -48 23 -25 1 -70 -1 -100 -5z m32 -63 c30 -24 31 -56 4 -83
-29 -29 -52 -31 -84 -9 -26 18 -29 60 -5 86 19 21 62 24 85 6z m18 -283 c39
-20 41 -61 4 -75 -61 -24 -154 -2 -154 36 0 48 89 71 150 39z"/>
</g>
</svg>
